#!OML:ASF I:\Actors\actors\Patient Classification 2\Patient 1\Session 1\actor1.ASF
:FULLY-SPECIFIED
:DEGREES
801
root -0.758378 18.7229 5.07933 4.00529 -2.27328 -1.65191
lowerback -0.964826 1.26803 -0.884006
upperback -2.38104 1.70108 0.742026
thorax -1.94769 0.874426 1.24211
lowerneck -12.1002 -3.21469 -2.26686
upperneck 20.5444 -4.85365 3.88526
head 8.54222 -2.07491 1.15122
rclavicle 1.62879e-014 9.93923e-015
rhumerus -58.7676 -10.6223 -76.1498
rradius 46.0115
rwrist 12.1622
rhand -8.40634 -39.5083
rfingers 7.12502
rthumb 17.5178 -68.739
lclavicle 1.62879e-014 9.93923e-015
lhumerus -45.7061 5.52055 84.8096
lradius 42.9097
lwrist 10.3552
lhand -12.846 -19.2111
lfingers 7.12502
lthumb 13.2416 10.3484
rfemur 0 0 0
rtibia 0
rfoot 0 0
rtoes 0
lfemur -5.1406 -9.15026 -13.257
ltibia 20.8598
lfoot -23.9885 13.9671
ltoes -54.5605
802
root -0.764085 18.7224 5.07283 3.90899 -2.22391 -1.62226
lowerback -0.912177 1.27374 -0.969411
upperback -2.37674 1.70799 0.730878
thorax -1.97529 0.879464 1.27719
lowerneck -12.2002 -3.24486 -2.2137
upperneck 20.7925 -4.89295 3.77965
head 8.642 -2.0955 1.10075
rclavicle -1.21911e-015 5.71506e-015
rhumerus -58.5182 -10.2085 -76.7843
rradius 46.3594
rwrist 11.7857
rhand -8.37006 -39.304
rfingers 7.12502
rthumb 17.5527 -68.5316
lclavicle -1.21911e-015 5.71506e-015
lhumerus -45.4905 4.83789 85.386
lradius 43.3016
lwrist 10.544
lhand -12.5864 -19.3863
lfingers 7.12502
lthumb 13.4919 10.1566
rfemur 0 0 0
rtibia 0
rfoot 0 0
rtoes 0
lfemur -5.05064 -9.00097 -13.2592
ltibia 20.8234
lfoot -23.8758 13.8115
ltoes -54.6141
803
root -0.770644 18.7229 5.06406 3.83521 -2.11423 -1.64395
lowerback -0.856662 1.25182 -1.02016
upperback -2.37365 1.67829 0.736079
thorax -2.00407 0.865768 1.30993
lowerneck -12.3684 -3.24011 -2.07387
upperneck 21.1395 -4.88452 3.58206
head 8.78209 -2.09417 1.00886
rclavicle 2.84976e-015 6.21202e-015
rhumerus -58.3331 -9.886 -77.3752
rradius 46.8251
rwrist 11.5242
rhand -8.35273 -39.092
rfingers 7.12502
rthumb 17.5694 -68.3181
lclavicle 2.84976e-015 6.21202e-015
lhumerus -45.2714 4.20632 85.9163
lradius 43.709
lwrist 10.7052
lhand -12.2744 -19.5354
lfingers 7.12502
lthumb 13.7926 9.9874
rfemur 0 0 0
rtibia 0
rfoot 0 0
rtoes 0
lfemur -5.00867 -8.89622 -13.1872
ltibia 20.786
lfoot -23.7293 13.6619
ltoes -54.7627
804
root -0.77681 18.7235 5.05493 3.80064 -2.00299 -1.6518
lowerback -0.868855 1.21266 -1.10228
upperback -2.37 1.62604 0.747564
thorax -1.99459 0.841233 1.36858
lowerneck -12.3875 -3.18896 -1.95949
upperneck 21.324 -4.81785 3.46147
head 8.84048 -2.06367 0.956187
rclavicle -1.93955e-014 4.17448e-015
rhumerus -58.1572 -9.50542 -77.9782
rradius 47.3548
rwrist 11.2398
rhand -8.28331 -39.1492
rfingers 7.12502
rthumb 17.6362 -68.3693
lclavicle -1.93955e-014 4.17448e-015
lhumerus -44.9661 3.73427 86.3743
lradius 43.9636
lwrist 10.7592
lhand -12.0133 -19.6509
lfingers 7.12502
lthumb 14.0442 9.85456
rfemur 0 0 0
rtibia 0
rfoot 0 0
rtoes 0
lfemur -5.01167 -8.93499 -13.1369
ltibia 20.7565
lfoot -23.6279 13.6038
ltoes -54.7681
805
root -0.782574 18.7243 5.04701 3.79263 -1.94092 -1.64594
lowerback -0.947694 1.18908 -1.1892
upperback -2.3624 1.59508 0.75407
thorax -1.94419 0.827066 1.42615
lowerneck -12.2294 -3.18555 -2.08466
upperneck 21.2729 -4.82703 3.64186
head 8.802 -2.06201 1.03945
rclavicle 7.237e-016 2.08724e-015
rhumerus -57.9628 -9.11544 -78.5496
rradius 47.9029
rwrist 11.0623
rhand -7.89693 -39.3704
rfingers 7.12502
rthumb 18.008 -68.5567
lclavicle 7.237e-016 2.08724e-015
lhumerus -44.663 3.25955 86.8521
lradius 44.1794
lwrist 10.7045
lhand -12.0094 -19.7431
lfingers 7.12502
lthumb 14.048 9.76217
rfemur 0 0 0
rtibia 0
rfoot 0 0
rtoes 0
lfemur -5.02728 -8.88299 -13.1015
ltibia 20.7189
lfoot -23.5375 13.4928
ltoes -54.7637
806
root -0.787117 18.7249 5.03951 3.76945 -1.88374 -1.65642
lowerback -0.99805 1.17399 -1.24039
upperback -2.34386 1.57547 0.765681
thorax -1.89799 0.817881 1.4683
lowerneck -12.0039 -3.22926 -2.46808
upperneck 21.0911 -4.91259 4.13044
head 8.7241 -2.08776 1.26202
rclavicle -2.44179e-014 8.44835e-015
rhumerus -57.7428 -8.81115 -79.0364
rradius 48.4648
rwrist 11.0738
rhand -7.20366 -39.659
rfingers 7.12502
rthumb 18.6749 -68.7826
lclavicle -2.44179e-014 8.44835e-015
lhumerus -44.4121 2.71005 87.3768
lradius 44.474
lwrist 10.6986
lhand -12.1602 -19.8713
lfingers 7.12502
lthumb 13.9027 9.64392
rfemur 0 0 0
rtibia 0
rfoot 0 0
rtoes 0
lfemur -5.02942 -8.6098 -13.0403
ltibia 20.6699
lfoot -23.3585 13.2683
ltoes -54.9462
